<svg width="20" height="16" viewBox="0 0 20 16" fill="none" xmlns="http://www.w3.org/2000/svg">
<path d="M9 12.0083V1.0083C9 0.743084 9.10536 0.48873 9.29289 0.301194C9.48043 0.113658 9.73478 0.00830078 10 0.00830078C10.2652 0.00830078 10.5196 0.113658 10.7071 0.301194C10.8946 0.48873 11 0.743084 11 1.0083V12.0083H12C12.2652 12.0083 12.5196 12.1137 12.7071 12.3012C12.8946 12.4887 13 12.7431 13 13.0083C13 13.2735 12.8946 13.5279 12.7071 13.7154C12.5196 13.9029 12.2652 14.0083 12 14.0083H11V15.0083C11 15.2735 10.8946 15.5279 10.7071 15.7154C10.5196 15.9029 10.2652 16.0083 10 16.0083C9.73478 16.0083 9.48043 15.9029 9.29289 15.7154C9.10536 15.5279 9 15.2735 9 15.0083V14.0083H8C7.73478 14.0083 7.48043 13.9029 7.29289 13.7154C7.10536 13.5279 7 13.2735 7 13.0083C7 12.7431 7.10536 12.4887 7.29289 12.3012C7.48043 12.1137 7.73478 12.0083 8 12.0083H9ZM16 2.0083V1.0083C16 0.743084 16.1054 0.48873 16.2929 0.301194C16.4804 0.113658 16.7348 0.00830078 17 0.00830078C17.2652 0.00830078 17.5196 0.113658 17.7071 0.301194C17.8946 0.48873 18 0.743084 18 1.0083V2.0083H19C19.2652 2.0083 19.5196 2.11366 19.7071 2.30119C19.8946 2.48873 20 2.74308 20 3.0083C20 3.27352 19.8946 3.52787 19.7071 3.71541C19.5196 3.90294 19.2652 4.0083 19 4.0083H18V15.0083C18 15.2735 17.8946 15.5279 17.7071 15.7154C17.5196 15.9029 17.2652 16.0083 17 16.0083C16.7348 16.0083 16.4804 15.9029 16.2929 15.7154C16.1054 15.5279 16 15.2735 16 15.0083V4.0083H15C14.7348 4.0083 14.4804 3.90294 14.2929 3.71541C14.1054 3.52787 14 3.27352 14 3.0083C14 2.74308 14.1054 2.48873 14.2929 2.30119C14.4804 2.11366 14.7348 2.0083 15 2.0083H16ZM4 5.0083H5C5.26522 5.0083 5.51957 5.11366 5.70711 5.30119C5.89464 5.48873 6 5.74308 6 6.0083C6 6.27352 5.89464 6.52787 5.70711 6.71541C5.51957 6.90294 5.26522 7.0083 5 7.0083H4V15.0083C4 15.2735 3.89464 15.5279 3.70711 15.7154C3.51957 15.9029 3.26522 16.0083 3 16.0083C2.73478 16.0083 2.48043 15.9029 2.29289 15.7154C2.10536 15.5279 2 15.2735 2 15.0083V7.0083H1C0.734784 7.0083 0.48043 6.90294 0.292893 6.71541C0.105357 6.52787 0 6.27352 0 6.0083C0 5.74308 0.105357 5.48873 0.292893 5.30119C0.48043 5.11366 0.734784 5.0083 1 5.0083H2V1.0083C2 0.743084 2.10536 0.48873 2.29289 0.301194C2.48043 0.113658 2.73478 0.00830078 3 0.00830078C3.26522 0.00830078 3.51957 0.113658 3.70711 0.301194C3.89464 0.48873 4 0.743084 4 1.0083V5.0083Z" fill="#112255" fill-opacity="0.7"/>
</svg>
